<svg viewBox="0 -7 26 44" fill="none" xmlns="http://www.w3.org/2000/svg">
<path d="M19.0806 3.00002C18.8806 4.60002 19.2806 1.9 18.6806 8.9C18.4806 8.8 18.1806 8.8 17.8806 8.7C17.9806 7.1 18.0806 5.4 18.1806 3.4C18.3806 0.200002 13.3806 0.200003 13.1806 3.2C13.0806 4.1 12.9806 6.1 12.8806 8.3C12.6806 8.3 12.4806 8.3 12.2806 8.3C12.2806 6.8 12.2806 4.80001 12.2806 3.00001C12.2806 -0.299991 7.28057 0.100004 7.28057 3C7.28057 3.9 7.18057 6.4 7.28057 8.7C6.88057 8.7 6.48057 8.8 5.98057 8.9L5.88057 5.9C5.88057 5.9 5.88057 5.9 5.98057 5.8C5.98057 5.6 5.98057 5.4 5.88057 5.2C5.58057 2.3 5.9284 6.1 5.7284 3.3C5.5284 -0.8 0.387689 0.500003 0.387689 3.3C0.487689 5.4 0.280572 2.10001 0.580572 6.00001C0.580572 6.00001 0.980572 12.1 1.98057 18L2.28057 23C2.28057 25.2 3.98057 27 6.18057 27H21.1806C21.6806 27 22.0806 26.7 22.2806 26.3L24.2806 21.1C24.3806 20.8 24.4806 20.5 24.5806 20.3C24.6806 19.9 24.7806 19.7 24.7806 19.7C24.7806 19.7 25.9806 15.8 23.2806 14.6C23.7806 9.2 23.8806 6.50001 24.0806 4.00001C24.5806 -0.199993 19.4806 0.100017 19.0806 3.00002Z" fill="#333333"/>
<path d="M23 36.1C23 37 22.3 37.7 21.4 37.7H4.8C3.9 37.7 3.2 37 3.2 36.1V29.6C3.2 28.7 3.9 28 4.8 28H21.4C22.3 28 23 28.7 23 29.6V36.1Z" fill="#333333"/>
</svg>